M48
; DRILL file {KiCad 9.0.4} date 2025-11-13T11:22:40+0100
; FORMAT={-:-/ absolute / inch / decimal}
; #@! TF.CreationDate,2025-11-13T11:22:40+01:00
; #@! TF.GenerationSoftware,Kicad,Pcbnew,9.0.4
; #@! TF.FileFunction,Plated,1,2,PTH
FMAT,2
INCH
; #@! TA.AperFunction,Plated,PTH,ViaDrill
T1C0.0118
%
G90
G05
T1
X4.9904Y-3.0936
X5.0Y-3.2071
X5.0181Y-3.163
X5.0371Y-3.0776
X5.0465Y-3.2217
X5.0472Y-3.6471
X5.0543Y-3.1336
X5.069Y-3.6667
X5.0762Y-3.717
X5.0882Y-3.1014
X5.1018Y-3.1499
X5.115Y-3.1115
X5.1334Y-3.083
X5.1527Y-3.1042
X5.1724Y-3.1497
X5.1921Y-3.0804
X5.2118Y-3.1084
X5.2142Y-3.6992
X5.2307Y-3.0778
X5.2529Y-3.131
X5.2708Y-3.0809
X5.2809Y-3.1825
X5.291Y-3.1098
X5.3041Y-3.7328
X5.3116Y-3.0929
X5.3299Y-3.1166
X5.3583Y-3.0795
X5.3723Y-3.1094
X5.3762Y-3.855
X5.3827Y-3.1954
X5.395Y-3.094
X5.4235Y-3.1051
X5.4264Y-3.8352
X5.4629Y-3.7297
X5.4669Y-3.7611
X5.5994Y-3.3905
X5.6876Y-3.3207
X5.7001Y-3.8756
X5.7025Y-3.9157
X5.7287Y-3.4057
X5.7355Y-3.8505
X5.7378Y-3.3541
X5.755Y-3.4225
X5.7597Y-3.7891
X5.761Y-3.7423
X5.7683Y-3.8402
X5.7773Y-3.9158
X5.7873Y-3.7317
X5.7874Y-3.4037
X5.7889Y-3.3312
X5.7897Y-3.8062
X5.7952Y-3.8748
X5.7996Y-3.6529
X5.8107Y-3.7759
X5.8134Y-3.4746
X5.8136Y-3.9245
X5.8174Y-3.83
X5.8188Y-3.2932
X5.819Y-3.3509
X5.8218Y-3.6725
X5.8226Y-3.4375
X5.8229Y-3.5741
X5.823Y-3.6026
X5.8234Y-3.7024
X5.8235Y-3.8891
M30
