M48
; DRILL file {KiCad 9.0.4} date 2025-11-13T11:37:52+0100
; FORMAT={-:-/ absolute / inch / decimal}
; #@! TF.CreationDate,2025-11-13T11:37:52+01:00
; #@! TF.GenerationSoftware,Kicad,Pcbnew,9.0.4
; #@! TF.FileFunction,Plated,1,2,PTH
FMAT,2
INCH
; #@! TA.AperFunction,Plated,PTH,ComponentDrill
T1C0.0118
; #@! TA.AperFunction,Plated,PTH,ViaDrill
T2C0.0157
%
G90
G05
T1
X3.8218Y-2.5396
X3.8218Y-2.5711
X3.8218Y-2.6026
X3.8218Y-2.6341
X3.8218Y-2.6656
X3.8218Y-2.6971
X3.8218Y-2.7286
X3.8218Y-2.7601
X3.8218Y-2.7916
X3.8218Y-2.8231
X3.8218Y-2.8546
X3.8218Y-2.886
X3.8218Y-2.9175
X3.8218Y-2.949
X3.8218Y-2.9805
X3.8218Y-3.012
X3.8218Y-3.0435
X3.8218Y-3.075
X3.8218Y-3.1065
X3.8218Y-3.138
X3.8218Y-3.1695
X3.8218Y-3.201
X3.8218Y-3.2325
X3.8218Y-3.264
X3.9005Y-2.4687
X3.9005Y-3.3349
X3.932Y-2.4687
X3.932Y-3.3349
X3.9635Y-2.4687
X3.9635Y-3.3349
X3.995Y-2.4687
X3.995Y-3.3349
X4.0265Y-2.4687
X4.0265Y-3.3349
X4.058Y-2.4687
X4.058Y-3.3349
X4.0895Y-2.4687
X4.0895Y-3.3349
X4.121Y-2.4687
X4.121Y-3.3349
X4.1525Y-2.4687
X4.1525Y-3.3349
X4.184Y-2.4687
X4.184Y-3.3349
X4.2155Y-2.4687
X4.2155Y-3.3349
X4.247Y-2.4687
X4.247Y-3.3349
X4.2785Y-2.4687
X4.2785Y-3.3349
X4.31Y-2.4687
X4.31Y-3.3349
X4.3414Y-2.4687
X4.3414Y-3.3349
X4.3729Y-2.4687
X4.3729Y-3.3349
X4.4517Y-2.5396
X4.4517Y-2.5711
X4.4517Y-2.6026
X4.4517Y-2.6341
X4.4517Y-2.6656
X4.4517Y-2.6971
X4.4517Y-2.7286
X4.4517Y-2.7601
X4.4517Y-2.7916
X4.4517Y-2.8231
X4.4517Y-2.8546
X4.4517Y-2.886
X4.4517Y-2.9175
X4.4517Y-2.949
X4.4517Y-2.9805
X4.4517Y-3.012
X4.4517Y-3.0435
X4.4517Y-3.075
X4.4517Y-3.1065
X4.4517Y-3.138
X4.4517Y-3.1695
X4.4517Y-3.201
X4.4517Y-3.2325
X4.4517Y-3.264
T2
X3.8653Y-2.5103
X3.8816Y-2.8563
X3.8819Y-2.7112
X3.8819Y-2.7614
X3.8821Y-3.0298
X3.8824Y-3.1074
X3.8826Y-3.1908
X3.8827Y-3.23
X3.8921Y-2.9128
X3.8925Y-2.9615
X3.8983Y-3.0716
X3.9016Y-2.998
X3.9039Y-2.6517
X3.9183Y-2.7028
X3.9195Y-3.237
X3.9286Y-2.7391
X3.93Y-2.7753
X3.9341Y-2.8213
X3.9376Y-2.5723
X3.939Y-2.9138
X3.954Y-2.6072
X3.9654Y-2.8874
X3.9741Y-2.6523
X4.0028Y-2.9865
X4.0089Y-2.9502
X4.0265Y-2.5325
X4.0336Y-2.7232
X4.0464Y-3.1442
X4.058Y-2.5685
X4.0699Y-3.0837
X4.0909Y-3.0506
X4.1004Y-3.0093
X4.121Y-2.9589
X4.1752Y-2.8835
X4.1981Y-2.8495
X4.2238Y-2.815
X4.2602Y-2.7926
X4.2774Y-2.7466
X4.3136Y-2.7466
X4.3276Y-2.7006
X4.3669Y-2.7108
X4.3899Y-2.6376
X4.3902Y-2.6804
X4.3905Y-2.5398
M30
