%TF.GenerationSoftware,KiCad,Pcbnew,9.0.4*%
%TF.CreationDate,2025-11-13T11:37:52+01:00*%
%TF.ProjectId,Neptune-32x-315-5805-bypass,4e657074-756e-4652-9d33-32782d333135,rev?*%
%TF.SameCoordinates,Original*%
%TF.FileFunction,Legend,Top*%
%TF.FilePolarity,Positive*%
%FSLAX46Y46*%
G04 Gerber Fmt 4.6, Leading zero omitted, Abs format (unit mm)*
G04 Created by KiCad (PCBNEW 9.0.4) date 2025-11-13 11:37:52*
%MOMM*%
%LPD*%
G01*
G04 APERTURE LIST*
%ADD10C,0.150000*%
%ADD11C,0.695000*%
%ADD12R,1.000000X0.300000*%
%ADD13R,0.300000X1.000000*%
G04 APERTURE END LIST*
D10*
X101710476Y-67259847D02*
X102329523Y-67259847D01*
X102329523Y-67259847D02*
X101996190Y-67640799D01*
X101996190Y-67640799D02*
X102139047Y-67640799D01*
X102139047Y-67640799D02*
X102234285Y-67688418D01*
X102234285Y-67688418D02*
X102281904Y-67736037D01*
X102281904Y-67736037D02*
X102329523Y-67831275D01*
X102329523Y-67831275D02*
X102329523Y-68069370D01*
X102329523Y-68069370D02*
X102281904Y-68164608D01*
X102281904Y-68164608D02*
X102234285Y-68212228D01*
X102234285Y-68212228D02*
X102139047Y-68259847D01*
X102139047Y-68259847D02*
X101853333Y-68259847D01*
X101853333Y-68259847D02*
X101758095Y-68212228D01*
X101758095Y-68212228D02*
X101710476Y-68164608D01*
X103281904Y-68259847D02*
X102710476Y-68259847D01*
X102996190Y-68259847D02*
X102996190Y-67259847D01*
X102996190Y-67259847D02*
X102900952Y-67402704D01*
X102900952Y-67402704D02*
X102805714Y-67497942D01*
X102805714Y-67497942D02*
X102710476Y-67545561D01*
X104186666Y-67259847D02*
X103710476Y-67259847D01*
X103710476Y-67259847D02*
X103662857Y-67736037D01*
X103662857Y-67736037D02*
X103710476Y-67688418D01*
X103710476Y-67688418D02*
X103805714Y-67640799D01*
X103805714Y-67640799D02*
X104043809Y-67640799D01*
X104043809Y-67640799D02*
X104139047Y-67688418D01*
X104139047Y-67688418D02*
X104186666Y-67736037D01*
X104186666Y-67736037D02*
X104234285Y-67831275D01*
X104234285Y-67831275D02*
X104234285Y-68069370D01*
X104234285Y-68069370D02*
X104186666Y-68164608D01*
X104186666Y-68164608D02*
X104139047Y-68212228D01*
X104139047Y-68212228D02*
X104043809Y-68259847D01*
X104043809Y-68259847D02*
X103805714Y-68259847D01*
X103805714Y-68259847D02*
X103710476Y-68212228D01*
X103710476Y-68212228D02*
X103662857Y-68164608D01*
X104662857Y-67878894D02*
X105424762Y-67878894D01*
X106377142Y-67259847D02*
X105900952Y-67259847D01*
X105900952Y-67259847D02*
X105853333Y-67736037D01*
X105853333Y-67736037D02*
X105900952Y-67688418D01*
X105900952Y-67688418D02*
X105996190Y-67640799D01*
X105996190Y-67640799D02*
X106234285Y-67640799D01*
X106234285Y-67640799D02*
X106329523Y-67688418D01*
X106329523Y-67688418D02*
X106377142Y-67736037D01*
X106377142Y-67736037D02*
X106424761Y-67831275D01*
X106424761Y-67831275D02*
X106424761Y-68069370D01*
X106424761Y-68069370D02*
X106377142Y-68164608D01*
X106377142Y-68164608D02*
X106329523Y-68212228D01*
X106329523Y-68212228D02*
X106234285Y-68259847D01*
X106234285Y-68259847D02*
X105996190Y-68259847D01*
X105996190Y-68259847D02*
X105900952Y-68212228D01*
X105900952Y-68212228D02*
X105853333Y-68164608D01*
X106996190Y-67688418D02*
X106900952Y-67640799D01*
X106900952Y-67640799D02*
X106853333Y-67593180D01*
X106853333Y-67593180D02*
X106805714Y-67497942D01*
X106805714Y-67497942D02*
X106805714Y-67450323D01*
X106805714Y-67450323D02*
X106853333Y-67355085D01*
X106853333Y-67355085D02*
X106900952Y-67307466D01*
X106900952Y-67307466D02*
X106996190Y-67259847D01*
X106996190Y-67259847D02*
X107186666Y-67259847D01*
X107186666Y-67259847D02*
X107281904Y-67307466D01*
X107281904Y-67307466D02*
X107329523Y-67355085D01*
X107329523Y-67355085D02*
X107377142Y-67450323D01*
X107377142Y-67450323D02*
X107377142Y-67497942D01*
X107377142Y-67497942D02*
X107329523Y-67593180D01*
X107329523Y-67593180D02*
X107281904Y-67640799D01*
X107281904Y-67640799D02*
X107186666Y-67688418D01*
X107186666Y-67688418D02*
X106996190Y-67688418D01*
X106996190Y-67688418D02*
X106900952Y-67736037D01*
X106900952Y-67736037D02*
X106853333Y-67783656D01*
X106853333Y-67783656D02*
X106805714Y-67878894D01*
X106805714Y-67878894D02*
X106805714Y-68069370D01*
X106805714Y-68069370D02*
X106853333Y-68164608D01*
X106853333Y-68164608D02*
X106900952Y-68212228D01*
X106900952Y-68212228D02*
X106996190Y-68259847D01*
X106996190Y-68259847D02*
X107186666Y-68259847D01*
X107186666Y-68259847D02*
X107281904Y-68212228D01*
X107281904Y-68212228D02*
X107329523Y-68164608D01*
X107329523Y-68164608D02*
X107377142Y-68069370D01*
X107377142Y-68069370D02*
X107377142Y-67878894D01*
X107377142Y-67878894D02*
X107329523Y-67783656D01*
X107329523Y-67783656D02*
X107281904Y-67736037D01*
X107281904Y-67736037D02*
X107186666Y-67688418D01*
X107996190Y-67259847D02*
X108091428Y-67259847D01*
X108091428Y-67259847D02*
X108186666Y-67307466D01*
X108186666Y-67307466D02*
X108234285Y-67355085D01*
X108234285Y-67355085D02*
X108281904Y-67450323D01*
X108281904Y-67450323D02*
X108329523Y-67640799D01*
X108329523Y-67640799D02*
X108329523Y-67878894D01*
X108329523Y-67878894D02*
X108281904Y-68069370D01*
X108281904Y-68069370D02*
X108234285Y-68164608D01*
X108234285Y-68164608D02*
X108186666Y-68212228D01*
X108186666Y-68212228D02*
X108091428Y-68259847D01*
X108091428Y-68259847D02*
X107996190Y-68259847D01*
X107996190Y-68259847D02*
X107900952Y-68212228D01*
X107900952Y-68212228D02*
X107853333Y-68164608D01*
X107853333Y-68164608D02*
X107805714Y-68069370D01*
X107805714Y-68069370D02*
X107758095Y-67878894D01*
X107758095Y-67878894D02*
X107758095Y-67640799D01*
X107758095Y-67640799D02*
X107805714Y-67450323D01*
X107805714Y-67450323D02*
X107853333Y-67355085D01*
X107853333Y-67355085D02*
X107900952Y-67307466D01*
X107900952Y-67307466D02*
X107996190Y-67259847D01*
X109234285Y-67259847D02*
X108758095Y-67259847D01*
X108758095Y-67259847D02*
X108710476Y-67736037D01*
X108710476Y-67736037D02*
X108758095Y-67688418D01*
X108758095Y-67688418D02*
X108853333Y-67640799D01*
X108853333Y-67640799D02*
X109091428Y-67640799D01*
X109091428Y-67640799D02*
X109186666Y-67688418D01*
X109186666Y-67688418D02*
X109234285Y-67736037D01*
X109234285Y-67736037D02*
X109281904Y-67831275D01*
X109281904Y-67831275D02*
X109281904Y-68069370D01*
X109281904Y-68069370D02*
X109234285Y-68164608D01*
X109234285Y-68164608D02*
X109186666Y-68212228D01*
X109186666Y-68212228D02*
X109091428Y-68259847D01*
X109091428Y-68259847D02*
X108853333Y-68259847D01*
X108853333Y-68259847D02*
X108758095Y-68212228D01*
X108758095Y-68212228D02*
X108710476Y-68164608D01*
X103496190Y-69345981D02*
X103639047Y-69393600D01*
X103639047Y-69393600D02*
X103686666Y-69441219D01*
X103686666Y-69441219D02*
X103734285Y-69536457D01*
X103734285Y-69536457D02*
X103734285Y-69679314D01*
X103734285Y-69679314D02*
X103686666Y-69774552D01*
X103686666Y-69774552D02*
X103639047Y-69822172D01*
X103639047Y-69822172D02*
X103543809Y-69869791D01*
X103543809Y-69869791D02*
X103162857Y-69869791D01*
X103162857Y-69869791D02*
X103162857Y-68869791D01*
X103162857Y-68869791D02*
X103496190Y-68869791D01*
X103496190Y-68869791D02*
X103591428Y-68917410D01*
X103591428Y-68917410D02*
X103639047Y-68965029D01*
X103639047Y-68965029D02*
X103686666Y-69060267D01*
X103686666Y-69060267D02*
X103686666Y-69155505D01*
X103686666Y-69155505D02*
X103639047Y-69250743D01*
X103639047Y-69250743D02*
X103591428Y-69298362D01*
X103591428Y-69298362D02*
X103496190Y-69345981D01*
X103496190Y-69345981D02*
X103162857Y-69345981D01*
X104067619Y-69203124D02*
X104305714Y-69869791D01*
X104543809Y-69203124D02*
X104305714Y-69869791D01*
X104305714Y-69869791D02*
X104210476Y-70107886D01*
X104210476Y-70107886D02*
X104162857Y-70155505D01*
X104162857Y-70155505D02*
X104067619Y-70203124D01*
X104924762Y-69203124D02*
X104924762Y-70203124D01*
X104924762Y-69250743D02*
X105020000Y-69203124D01*
X105020000Y-69203124D02*
X105210476Y-69203124D01*
X105210476Y-69203124D02*
X105305714Y-69250743D01*
X105305714Y-69250743D02*
X105353333Y-69298362D01*
X105353333Y-69298362D02*
X105400952Y-69393600D01*
X105400952Y-69393600D02*
X105400952Y-69679314D01*
X105400952Y-69679314D02*
X105353333Y-69774552D01*
X105353333Y-69774552D02*
X105305714Y-69822172D01*
X105305714Y-69822172D02*
X105210476Y-69869791D01*
X105210476Y-69869791D02*
X105020000Y-69869791D01*
X105020000Y-69869791D02*
X104924762Y-69822172D01*
X106258095Y-69869791D02*
X106258095Y-69345981D01*
X106258095Y-69345981D02*
X106210476Y-69250743D01*
X106210476Y-69250743D02*
X106115238Y-69203124D01*
X106115238Y-69203124D02*
X105924762Y-69203124D01*
X105924762Y-69203124D02*
X105829524Y-69250743D01*
X106258095Y-69822172D02*
X106162857Y-69869791D01*
X106162857Y-69869791D02*
X105924762Y-69869791D01*
X105924762Y-69869791D02*
X105829524Y-69822172D01*
X105829524Y-69822172D02*
X105781905Y-69726933D01*
X105781905Y-69726933D02*
X105781905Y-69631695D01*
X105781905Y-69631695D02*
X105829524Y-69536457D01*
X105829524Y-69536457D02*
X105924762Y-69488838D01*
X105924762Y-69488838D02*
X106162857Y-69488838D01*
X106162857Y-69488838D02*
X106258095Y-69441219D01*
X106686667Y-69822172D02*
X106781905Y-69869791D01*
X106781905Y-69869791D02*
X106972381Y-69869791D01*
X106972381Y-69869791D02*
X107067619Y-69822172D01*
X107067619Y-69822172D02*
X107115238Y-69726933D01*
X107115238Y-69726933D02*
X107115238Y-69679314D01*
X107115238Y-69679314D02*
X107067619Y-69584076D01*
X107067619Y-69584076D02*
X106972381Y-69536457D01*
X106972381Y-69536457D02*
X106829524Y-69536457D01*
X106829524Y-69536457D02*
X106734286Y-69488838D01*
X106734286Y-69488838D02*
X106686667Y-69393600D01*
X106686667Y-69393600D02*
X106686667Y-69345981D01*
X106686667Y-69345981D02*
X106734286Y-69250743D01*
X106734286Y-69250743D02*
X106829524Y-69203124D01*
X106829524Y-69203124D02*
X106972381Y-69203124D01*
X106972381Y-69203124D02*
X107067619Y-69250743D01*
X107496191Y-69822172D02*
X107591429Y-69869791D01*
X107591429Y-69869791D02*
X107781905Y-69869791D01*
X107781905Y-69869791D02*
X107877143Y-69822172D01*
X107877143Y-69822172D02*
X107924762Y-69726933D01*
X107924762Y-69726933D02*
X107924762Y-69679314D01*
X107924762Y-69679314D02*
X107877143Y-69584076D01*
X107877143Y-69584076D02*
X107781905Y-69536457D01*
X107781905Y-69536457D02*
X107639048Y-69536457D01*
X107639048Y-69536457D02*
X107543810Y-69488838D01*
X107543810Y-69488838D02*
X107496191Y-69393600D01*
X107496191Y-69393600D02*
X107496191Y-69345981D01*
X107496191Y-69345981D02*
X107543810Y-69250743D01*
X107543810Y-69250743D02*
X107639048Y-69203124D01*
X107639048Y-69203124D02*
X107781905Y-69203124D01*
X107781905Y-69203124D02*
X107877143Y-69250743D01*
%TO.C,IC1*%
D11*
X99959300Y-65323600D02*
G75*
G02*
X99264300Y-65323600I-347500J0D01*
G01*
X99264300Y-65323600D02*
G75*
G02*
X99959300Y-65323600I347500J0D01*
G01*
%TD*%
%LPC*%
D12*
%TO.C,IC1*%
X97572800Y-64505600D03*
X97572800Y-65305600D03*
X97572800Y-66105600D03*
X97572800Y-66905600D03*
X97572800Y-67705600D03*
X97572800Y-68505600D03*
X97572800Y-69305600D03*
X97572800Y-70105600D03*
X97572800Y-70905600D03*
X97572800Y-71705600D03*
X97572800Y-72505600D03*
X97572800Y-73305600D03*
X97572800Y-74105600D03*
X97572800Y-74905600D03*
X97572800Y-75705600D03*
X97572800Y-76505600D03*
X97572800Y-77305600D03*
X97572800Y-78105600D03*
X97572800Y-78905600D03*
X97572800Y-79705600D03*
X97572800Y-80505600D03*
X97572800Y-81305600D03*
X97572800Y-82105600D03*
X97572800Y-82905600D03*
D13*
X99072800Y-84205600D03*
X99872800Y-84205600D03*
X100672800Y-84205600D03*
X101472800Y-84205600D03*
X102272800Y-84205600D03*
X103072800Y-84205600D03*
X103872800Y-84205600D03*
X104672800Y-84205600D03*
X105472800Y-84205600D03*
X106272800Y-84205600D03*
X107072800Y-84205600D03*
X107872800Y-84205600D03*
X108672800Y-84205600D03*
X109472800Y-84205600D03*
X110272800Y-84205600D03*
X111072800Y-84205600D03*
D12*
X112572800Y-82905600D03*
X112572800Y-82105600D03*
X112572800Y-81305600D03*
X112572800Y-80505600D03*
X112572800Y-79705600D03*
X112572800Y-78905600D03*
X112572800Y-78105600D03*
X112572800Y-77305600D03*
X112572800Y-76505600D03*
X112572800Y-75705600D03*
X112572800Y-74905600D03*
X112572800Y-74105600D03*
X112572800Y-73305600D03*
X112572800Y-72505600D03*
X112572800Y-71705600D03*
X112572800Y-70905600D03*
X112572800Y-70105600D03*
X112572800Y-69305600D03*
X112572800Y-68505600D03*
X112572800Y-67705600D03*
X112572800Y-66905600D03*
X112572800Y-66105600D03*
X112572800Y-65305600D03*
X112572800Y-64505600D03*
D13*
X111072800Y-63205600D03*
X110272800Y-63205600D03*
X109472800Y-63205600D03*
X108672800Y-63205600D03*
X107872800Y-63205600D03*
X107072800Y-63205600D03*
X106272800Y-63205600D03*
X105472800Y-63205600D03*
X104672800Y-63205600D03*
X103872800Y-63205600D03*
X103072800Y-63205600D03*
X102272800Y-63205600D03*
X101472800Y-63205600D03*
X100672800Y-63205600D03*
X99872800Y-63205600D03*
X99072800Y-63205600D03*
%TD*%
%LPD*%
M02*
